<?xml version="1.0" encoding="UTF-8" standalone="no"?>
<!-- Created with Inkscape (http://www.inkscape.org/) -->

<svg
   width="1920"
   height="1920"
   viewBox="0 0 507.99998 508"
   version="1.1"
   id="svg5"
   inkscape:version="1.3 (0e150ed6c4, 2023-07-21)"
   sodipodi:docname="favicon.svg"
   xml:space="preserve"
   inkscape:export-filename="favicon.png"
   inkscape:export-xdpi="96"
   inkscape:export-ydpi="96"
   xmlns:inkscape="http://www.inkscape.org/namespaces/inkscape"
   xmlns:sodipodi="http://sodipodi.sourceforge.net/DTD/sodipodi-0.dtd"
   xmlns="http://www.w3.org/2000/svg"
   xmlns:svg="http://www.w3.org/2000/svg"><sodipodi:namedview
     id="namedview7"
     pagecolor="#ffffff"
     bordercolor="#000000"
     borderopacity="0.25"
     inkscape:showpageshadow="true"
     inkscape:pageopacity="0.0"
     inkscape:pagecheckerboard="false"
     inkscape:deskcolor="#d1d1d1"
     inkscape:document-units="px"
     showgrid="false"
     inkscape:lockguides="false"
     showborder="true"
     borderlayer="true"
     inkscape:zoom="0.19353365"
     inkscape:cx="304.85655"
     inkscape:cy="1072.165"
     inkscape:window-width="1920"
     inkscape:window-height="1017"
     inkscape:window-x="-8"
     inkscape:window-y="-8"
     inkscape:window-maximized="1"
     inkscape:current-layer="layer1" /><defs
     id="defs2" /><g
     inkscape:label="Camada 1"
     inkscape:groupmode="layer"
     id="layer1"><rect
       style="fill:#f9f9f9;stroke-width:0.774231;stroke-linecap:square;stroke-linejoin:round;paint-order:markers fill stroke"
       id="rect1"
       width="508"
       height="508"
       x="-5.0000003e-06"
       y="-5.0000003e-06" /><path
       style="fill:#000000"
       d="m 105.56416,415.97475 c -6.219323,-2.81526 -9.397543,-7.63496 -9.444933,-14.32301 -0.0339,-4.78061 1.2417,-8.03247 4.382973,-11.17375 4.36994,-4.36994 2.23477,-4.1492 43.61546,-4.50903 l 37.57333,-0.32673 -5.51504,-2.81687 c -43.59723,-22.26777 -74.8584,-73.6796 -88.282993,-145.18938 -1.43809,-7.66041 -1.42278,-11.96041 0.0612,-17.19929 0.90592,-3.19804 4.78278,-7.49977 8.13494,-9.02646 2.50063,-1.13887 8.258083,-1.19041 132.976923,-1.19041 125.36152,0 130.46341,0.0463 132.97692,1.20634 4.84375,2.23553 7.84463,7.24042 8.58427,14.31684 l 0.40883,3.91152 16.74055,0.25137 c 16.33691,0.24531 16.82721,0.29175 20.33452,1.92594 1.97669,0.92101 4.55541,2.48769 5.7305,3.4815 4.21389,3.56385 7.31451,10.98671 7.33073,17.54971 0.0172,6.97564 -3.6256,19.30551 -9.13698,30.92577 -14.0235,29.56738 -41.42962,54.46804 -70.24935,63.82718 -6.98444,2.26819 -12.24863,3.53243 -16.98968,4.08025 l -3.92069,0.45302 -8.16812,7.95347 c -11.2493,10.95368 -18.7965,16.51717 -30.8537,22.7441 l -5.41273,2.7954 37.24661,0.32673 c 33.87581,0.29715 37.43604,0.43031 39.33986,1.47129 11.84528,6.47686 11.20231,22.95976 -1.11308,28.5345 -2.92413,1.32365 -3.61077,1.33107 -123.17518,1.33107 -119.56442,0 -120.25105,-0.007 -123.17518,-1.33107 z M 360.34172,302.05848 c 9.25103,-7.89849 18.29156,-19.28995 23.50448,-29.61668 2.00512,-3.97212 4.66052,-10.50061 4.66115,-11.45975 1.8e-4,-0.27765 -5.35026,-0.42468 -11.88986,-0.32672 l -11.89019,0.1781 -1.19705,4.24742 c -4.17212,14.80361 -9.74118,30.58842 -14.1531,40.11515 -1.47962,3.19498 -2.69023,6.06819 -2.69023,6.38489 0,0.89131 7.95688,-4.65756 13.6548,-9.52241 z M 198.58206,199.45562 c -13.51363,-10.23259 -18.66538,-29.28128 -12.7536,-47.15664 1.081,-3.2686 3.73433,-9.4437 5.89627,-13.72243 4.94946,-9.79551 6.28267,-13.21897 7.56434,-19.42396 1.27794,-6.18689 1.28969,-9.86525 0.0542,-16.95034 -1.14189,-6.548049 -0.57824,-9.135169 2.31636,-10.632029 2.97728,-1.53961 4.79305,-1.14611 8.99911,1.95022 11.20749,8.250489 17.15424,23.042659 15.26788,37.977919 -0.92652,7.33575 -3.50678,14.69672 -7.31464,20.86725 -1.55088,2.51317 -3.77268,6.11926 -4.93733,8.01354 -3.66744,5.96504 -5.47435,16.94483 -4.21856,25.63434 1.66586,11.52695 1.64809,12.79374 -0.20546,14.64729 -2.71675,2.71674 -5.97521,2.34866 -10.66853,-1.20516 z m 51.90894,-2.53457 c -7.47281,-6.08815 -10.98282,-13.43543 -11.45429,-23.97654 -0.39708,-8.87805 0.55826,-12.58595 6.39769,-24.83107 6.03838,-12.6623 6.97964,-16.87589 5.86454,-26.25268 -0.75859,-6.37895 -0.73392,-7.20363 0.26092,-8.72195 2.76387,-4.21821 7.07501,-3.38105 13.07594,2.53915 11.68688,11.52965 12.62563,30.0465 2.33646,46.08641 -4.13943,6.453 -5.08238,8.77273 -5.89495,14.50209 -0.47689,3.36256 -0.44309,6.25885 0.12039,10.31505 1.17298,8.44361 1.05026,9.84316 -1.01917,11.62321 -2.81393,2.42044 -5.59295,2.0522 -9.68753,-1.28367 z"
       id="path1" /></g></svg>
